<svg width="50" height="50" viewBox="0 0 50 50" fill="none" xmlns="http://www.w3.org/2000/svg">
<g filter="url(#filter0_d_1_26)">
<rect x="10" y="10" width="30" height="30" rx="15" fill="url(#paint0_linear_1_26)"/>
</g>
<path d="M23.2168 18C27.0828 18 30.2168 21.134 30.2168 25C30.2168 28.866 27.0828 32 23.2168 32C22.0566 32 20.9634 31.7154 20 31.2158C20.908 31.1797 21.7577 30.8812 22.4961 30.3818C22.7629 30.4228 23.0362 30.4443 23.3145 30.4443C26.2673 30.4441 28.6609 28.0505 28.6611 25.0977C28.6611 22.1446 26.2674 19.7502 23.3145 19.75C23.1154 19.75 22.919 19.761 22.7256 19.7822C21.9362 19.1845 21.0037 18.8231 20 18.7832C20.9634 18.2837 22.0567 18 23.2168 18Z" fill="white"/>
<defs>
<filter id="filter0_d_1_26" x="0" y="0" width="50" height="50" filterUnits="userSpaceOnUse" color-interpolation-filters="sRGB">
<feFlood flood-opacity="0" result="BackgroundImageFix"/>
<feColorMatrix in="SourceAlpha" type="matrix" values="0 0 0 0 0 0 0 0 0 0 0 0 0 0 0 0 0 0 127 0" result="hardAlpha"/>
<feOffset/>
<feGaussianBlur stdDeviation="5"/>
<feColorMatrix type="matrix" values="0 0 0 0 0.364706 0 0 0 0 0.34902 0 0 0 0 0.415686 0 0 0 0.7 0"/>
<feBlend mode="normal" in2="BackgroundImageFix" result="effect1_dropShadow_1_26"/>
<feBlend mode="normal" in="SourceGraphic" in2="effect1_dropShadow_1_26" result="shape"/>
</filter>
<linearGradient id="paint0_linear_1_26" x1="10.1934" y1="10" x2="10.1934" y2="39.6132" gradientUnits="userSpaceOnUse">
<stop stop-color="#595761"/>
<stop offset="1" stop-color="#6E7587"/>
</linearGradient>
</defs>
</svg>
