<svg width="50" height="50" viewBox="0 0 50 50" fill="none" xmlns="http://www.w3.org/2000/svg">
<g filter="url(#filter0_d_1_36)">
<rect x="10" y="10" width="30" height="30" rx="15" fill="url(#paint0_linear_1_36)"/>
</g>
<path d="M26.2677 17C26.836 17.0005 26.7171 17.7081 26.6857 18.0156C26.6545 18.3203 26.0703 19.7361 26.0597 19.7617C26.0597 19.7617 25.9763 20.0787 25.9728 20.2363C29.3406 20.4944 31.9913 23.2472 31.9913 26.6074C31.9912 30.1379 29.0649 32.9999 25.4552 33C22.4955 32.9999 19.9961 31.0755 19.1915 28.4365C19.174 28.359 19.1604 28.2828 19.1505 28.21C19.0668 27.5958 19.067 27.1705 19.2755 27.2461C19.3911 27.2897 19.6219 28.0528 19.9679 28.6787C20.2473 29.1841 20.6585 29.5849 20.7062 29.5615C20.7621 29.5307 20.4678 29.1516 20.2648 28.7891C20.0948 28.4855 19.9794 28.1694 20.132 28.1289C20.3174 28.0805 20.7141 28.7018 21.1544 29.1914C21.5112 29.588 21.9344 29.8736 21.9972 29.8447C22.0721 29.8066 21.8113 29.4909 21.6349 29.1914C21.4927 28.95 21.372 28.751 21.4904 28.6787C21.7446 28.5246 22.4929 29.5284 22.6124 29.4287C22.7311 29.3279 22.3671 28.8735 22.6798 28.8301C22.7863 28.8162 22.999 28.981 23.3868 29.1631C23.8383 29.4938 24.3966 29.6933 25.004 29.6934C26.4977 29.6933 27.7091 28.5088 27.7091 27.0479C27.709 25.9475 27.0216 25.0049 26.0441 24.6064C25.97 24.76 25.8797 24.8988 25.7716 24.9648C25.4535 25.1589 25.5013 25.0991 24.9816 25.2041C24.4627 25.309 18.6801 26.6358 18.6505 26.6426C18.6505 26.6426 18.2176 26.684 18.0382 26.501C17.8608 26.3179 18.3585 25.4238 18.3634 25.415C18.3706 25.402 19.9251 22.6005 20.3595 22.1768C20.5444 21.9966 22.0476 20.9989 23.5929 19.6523C24.0955 19.2144 24.9818 18.3916 25.5089 17.7334C25.7726 17.404 25.8751 17 26.2677 17ZM22.7335 22.4512C22.7335 22.4512 21.9751 22.9555 21.6632 23.252C21.353 23.5469 20.8397 24.2482 20.8341 24.2559C20.8341 24.2559 21.7958 24.3156 22.3253 23.8125C22.8506 23.3132 22.7354 22.4646 22.7335 22.4512Z" fill="white"/>
<defs>
<filter id="filter0_d_1_36" x="0" y="0" width="50" height="50" filterUnits="userSpaceOnUse" color-interpolation-filters="sRGB">
<feFlood flood-opacity="0" result="BackgroundImageFix"/>
<feColorMatrix in="SourceAlpha" type="matrix" values="0 0 0 0 0 0 0 0 0 0 0 0 0 0 0 0 0 0 127 0" result="hardAlpha"/>
<feOffset/>
<feGaussianBlur stdDeviation="5"/>
<feColorMatrix type="matrix" values="0 0 0 0 0.027451 0 0 0 0 0.427451 0 0 0 0 0.752941 0 0 0 0.7 0"/>
<feBlend mode="normal" in2="BackgroundImageFix" result="effect1_dropShadow_1_36"/>
<feBlend mode="normal" in="SourceGraphic" in2="effect1_dropShadow_1_36" result="shape"/>
</filter>
<linearGradient id="paint0_linear_1_36" x1="10.1934" y1="10" x2="10.1934" y2="39.6132" gradientUnits="userSpaceOnUse">
<stop stop-color="#0C69C8"/>
<stop offset="1" stop-color="#0180C7"/>
</linearGradient>
</defs>
</svg>
