<svg width="50" height="50" viewBox="0 0 50 50" fill="none" xmlns="http://www.w3.org/2000/svg">
<g filter="url(#filter0_d_1_79)">
<rect x="10" y="10" width="30" height="30" rx="15" fill="url(#paint0_linear_1_79)"/>
</g>
<path d="M24.7871 17.6523C24.8792 17.4843 25.1209 17.4843 25.2129 17.6523L27.0957 21.0966L29.2295 20.4785C29.4136 20.4251 29.5843 20.5965 29.5303 20.7802L28.8985 22.9131L32.3741 24.8134C32.5421 24.9055 32.5421 25.1472 32.3741 25.2392L28.9297 27.1211L29.5303 29.1484C29.5847 29.3323 29.4137 29.5036 29.2295 29.4502L27.1543 28.8476L25.2129 32.4004C25.1209 32.5684 24.8792 32.5684 24.7871 32.4004L22.8448 28.8476L20.7705 29.4502C20.5864 29.5036 20.4154 29.3323 20.4698 29.1484L21.0694 27.1211L17.626 25.2392C17.458 25.1472 17.458 24.9055 17.626 24.8134L21.1006 22.9131L20.4698 20.7802C20.4157 20.5965 20.5865 20.4251 20.7705 20.4785L22.9034 21.0966L24.7871 17.6523ZM25.2334 22.6914C25.1414 22.5231 24.8997 22.5231 24.8077 22.6914L24.0498 24.0761L22.6651 24.834C22.4968 24.926 22.4968 25.1677 22.6651 25.2597L24.0498 26.0166L24.8077 27.4023C24.8997 27.5703 25.1414 27.5704 25.2334 27.4023L25.9903 26.0166L27.376 25.2597C27.5441 25.1677 27.544 24.926 27.376 24.834L25.9903 24.0761L25.2334 22.6914Z" fill="white"/>
<defs>
<filter id="filter0_d_1_79" x="0" y="0" width="50" height="50" filterUnits="userSpaceOnUse" color-interpolation-filters="sRGB">
<feFlood flood-opacity="0" result="BackgroundImageFix"/>
<feColorMatrix in="SourceAlpha" type="matrix" values="0 0 0 0 0 0 0 0 0 0 0 0 0 0 0 0 0 0 127 0" result="hardAlpha"/>
<feOffset/>
<feGaussianBlur stdDeviation="5"/>
<feColorMatrix type="matrix" values="0 0 0 0 0.94902 0 0 0 0 0.580392 0 0 0 0 0.913725 0 0 0 0.7 0"/>
<feBlend mode="normal" in2="BackgroundImageFix" result="effect1_dropShadow_1_79"/>
<feBlend mode="normal" in="SourceGraphic" in2="effect1_dropShadow_1_79" result="shape"/>
</filter>
<linearGradient id="paint0_linear_1_79" x1="10.2462" y1="10" x2="10.2462" y2="39.5076" gradientUnits="userSpaceOnUse">
<stop stop-color="#EC8CE5"/>
<stop offset="1" stop-color="#F3A7E7"/>
</linearGradient>
</defs>
</svg>
