<svg width="50" height="50" viewBox="0 0 50 50" fill="none" xmlns="http://www.w3.org/2000/svg">
<g filter="url(#filter0_d_1_85)">
<rect x="10" y="10" width="30" height="30" rx="15" fill="url(#paint0_linear_1_85)"/>
</g>
<path d="M30.4243 20.1969C32.8144 22.5873 32.3774 26.8989 29.4486 29.8278C26.8467 32.4297 23.1552 33.0625 20.6871 31.4961L22.593 29.158L25.6651 28.4944L23.1578 28.2437L24.7516 26.6209L26.5649 26.2232L25.1307 25.7985L26.5656 23.2104L24.5251 25.4995L23.7365 24.3877L24.0141 26.2232L22.593 27.8252L21.9349 25.7985L21.9342 28.4937L19.9565 30.9326C19.9103 30.8898 19.8626 30.8483 19.8177 30.8035C17.4274 28.4132 17.8638 24.1009 20.7927 21.1719C23.7217 18.243 28.034 17.8066 30.4243 20.1969Z" fill="white"/>
<defs>
<filter id="filter0_d_1_85" x="0" y="0" width="50" height="50" filterUnits="userSpaceOnUse" color-interpolation-filters="sRGB">
<feFlood flood-opacity="0" result="BackgroundImageFix"/>
<feColorMatrix in="SourceAlpha" type="matrix" values="0 0 0 0 0 0 0 0 0 0 0 0 0 0 0 0 0 0 127 0" result="hardAlpha"/>
<feOffset/>
<feGaussianBlur stdDeviation="5"/>
<feColorMatrix type="matrix" values="0 0 0 0 0.392157 0 0 0 0 0.72549 0 0 0 0 0.329412 0 0 0 0.7 0"/>
<feBlend mode="normal" in2="BackgroundImageFix" result="effect1_dropShadow_1_85"/>
<feBlend mode="normal" in="SourceGraphic" in2="effect1_dropShadow_1_85" result="shape"/>
</filter>
<linearGradient id="paint0_linear_1_85" x1="10" y1="10" x2="10" y2="40" gradientUnits="userSpaceOnUse">
<stop stop-color="#5FBC51"/>
<stop offset="1" stop-color="#5AC178"/>
</linearGradient>
</defs>
</svg>
