<svg width="50" height="50" viewBox="0 0 50 50" fill="none" xmlns="http://www.w3.org/2000/svg">
<g filter="url(#filter0_d_1_86)">
<rect x="10" y="10" width="30" height="30" rx="15" fill="url(#paint0_linear_1_86)"/>
</g>
<path d="M22.5324 22.2871C22.6718 22.2872 22.7684 22.4256 22.7209 22.5566L20.0735 29.8672C20.0446 29.9468 19.9687 30 19.884 30H17.7014C17.561 30 17.4638 29.86 17.5129 29.7285L20.2512 22.418C20.2806 22.3394 20.3558 22.2871 20.4397 22.2871H22.5324ZM28.6252 19C28.7108 19 28.7875 19.054 28.8156 19.1348L32.4953 29.6895C32.5409 29.8202 32.4433 29.957 32.3049 29.957H20.8713C20.8107 29.9568 20.7683 29.897 20.7883 29.8398L24.5774 19.1338C24.6059 19.0536 24.6817 19 24.7668 19H28.6252Z" fill="white"/>
<defs>
<filter id="filter0_d_1_86" x="0" y="0" width="50" height="50" filterUnits="userSpaceOnUse" color-interpolation-filters="sRGB">
<feFlood flood-opacity="0" result="BackgroundImageFix"/>
<feColorMatrix in="SourceAlpha" type="matrix" values="0 0 0 0 0 0 0 0 0 0 0 0 0 0 0 0 0 0 127 0" result="hardAlpha"/>
<feOffset/>
<feGaussianBlur stdDeviation="5"/>
<feColorMatrix type="matrix" values="0 0 0 0 0.847059 0 0 0 0 0.509804 0 0 0 0 0.333333 0 0 0 0.7 0"/>
<feBlend mode="normal" in2="BackgroundImageFix" result="effect1_dropShadow_1_86"/>
<feBlend mode="normal" in="SourceGraphic" in2="effect1_dropShadow_1_86" result="shape"/>
</filter>
<linearGradient id="paint0_linear_1_86" x1="10.1934" y1="10" x2="10.1934" y2="39.6132" gradientUnits="userSpaceOnUse">
<stop stop-color="#DC7545"/>
<stop offset="1" stop-color="#D29463"/>
</linearGradient>
</defs>
</svg>
