<svg width="50" height="50" viewBox="0 0 50 50" fill="none" xmlns="http://www.w3.org/2000/svg">
<g filter="url(#filter0_d_1_109)">
<rect x="10" y="10" width="30" height="30" rx="15" fill="url(#paint0_linear_1_109)"/>
</g>
<path d="M25.5 18C29.6421 18 33 20.9642 33 24.6201C32.9998 26.5663 32.0473 28.3153 30.5322 29.5264C30.5958 29.7863 30.6318 30.0641 30.6318 30.3525C30.6317 31.8146 29.748 32.9998 28.6582 33C28.0112 33 27.439 32.5809 27.0791 31.9355C26.7192 32.581 26.1471 33 25.5 33C24.79 33 24.17 32.496 23.8223 31.7412C23.4745 32.4959 22.8545 33 22.1445 33C21.0547 32.9999 20.1711 31.8146 20.1709 30.3525C20.1709 30.014 20.2194 29.6902 20.3057 29.3926C18.8853 28.1881 18.0002 26.4959 18 24.6201C18 20.9642 21.3579 18 25.5 18ZM25.4014 21.3906C22.9488 21.3906 20.9609 22.8949 20.9609 24.751C20.961 26.607 22.9488 28.1113 25.4014 28.1113C27.8539 28.1113 29.8418 26.607 29.8418 24.751C29.8418 22.8949 27.8539 21.3906 25.4014 21.3906Z" fill="white"/>
<defs>
<filter id="filter0_d_1_109" x="0" y="0" width="50" height="50" filterUnits="userSpaceOnUse" color-interpolation-filters="sRGB">
<feFlood flood-opacity="0" result="BackgroundImageFix"/>
<feColorMatrix in="SourceAlpha" type="matrix" values="0 0 0 0 0 0 0 0 0 0 0 0 0 0 0 0 0 0 127 0" result="hardAlpha"/>
<feOffset/>
<feGaussianBlur stdDeviation="5"/>
<feColorMatrix type="matrix" values="0 0 0 0 0.639216 0 0 0 0 0.419608 0 0 0 0 0.796078 0 0 0 0.7 0"/>
<feBlend mode="normal" in2="BackgroundImageFix" result="effect1_dropShadow_1_109"/>
<feBlend mode="normal" in="SourceGraphic" in2="effect1_dropShadow_1_109" result="shape"/>
</filter>
<linearGradient id="paint0_linear_1_109" x1="10" y1="10" x2="10" y2="40" gradientUnits="userSpaceOnUse">
<stop stop-color="#A864C7"/>
<stop offset="1" stop-color="#C261D4"/>
</linearGradient>
</defs>
</svg>
