<svg width="50" height="50" viewBox="0 0 50 50" fill="none" xmlns="http://www.w3.org/2000/svg">
<g filter="url(#filter0_d_1_123)">
<rect x="10" y="10" width="30" height="30" rx="15" fill="url(#paint0_linear_1_123)"/>
</g>
<path d="M28.5772 19C28.7101 19 28.8329 19.0707 28.8995 19.1855L32.4483 25.3174C32.5151 25.4329 32.5152 25.575 32.4483 25.6904L28.8995 31.8145C28.8329 31.9293 28.71 32 28.5772 32H21.461C21.3288 32 21.2066 31.9295 21.1397 31.8154L17.5509 25.6914C17.4831 25.5753 17.483 25.4315 17.5509 25.3154L21.1397 19.1846C21.2066 19.0704 21.3287 19 21.461 19H28.5772ZM25.0001 22C23.0671 22 21.5001 23.567 21.5001 25.5C21.5001 27.433 23.0671 29 25.0001 29C26.9331 29 28.5001 27.433 28.5001 25.5C28.5001 23.567 26.9331 22 25.0001 22Z" fill="white"/>
<defs>
<filter id="filter0_d_1_123" x="0" y="0" width="50" height="50" filterUnits="userSpaceOnUse" color-interpolation-filters="sRGB">
<feFlood flood-opacity="0" result="BackgroundImageFix"/>
<feColorMatrix in="SourceAlpha" type="matrix" values="0 0 0 0 0 0 0 0 0 0 0 0 0 0 0 0 0 0 127 0" result="hardAlpha"/>
<feOffset/>
<feGaussianBlur stdDeviation="5"/>
<feColorMatrix type="matrix" values="0 0 0 0 0.313726 0 0 0 0 0.580392 0 0 0 0 0.631373 0 0 0 0.7 0"/>
<feBlend mode="normal" in2="BackgroundImageFix" result="effect1_dropShadow_1_123"/>
<feBlend mode="normal" in="SourceGraphic" in2="effect1_dropShadow_1_123" result="shape"/>
</filter>
<linearGradient id="paint0_linear_1_123" x1="10" y1="10" x2="10" y2="40" gradientUnits="userSpaceOnUse">
<stop stop-color="#52869D"/>
<stop offset="1" stop-color="#58A6AA"/>
</linearGradient>
</defs>
</svg>
