<svg width="50" height="50" viewBox="0 0 50 50" fill="none" xmlns="http://www.w3.org/2000/svg">
<g filter="url(#filter0_d_1_128)">
<rect x="10" y="10" width="30" height="30" rx="15" fill="url(#paint0_linear_1_128)"/>
</g>
<path d="M25 18C27.7614 18 29.9999 21.4521 30 25.7109C30 29.9699 27.7614 33.4229 25 33.4229C22.2386 33.4229 20 29.9699 20 25.7109C20.0001 21.4521 22.2386 18 25 18ZM22.0635 28.46C22.0635 28.46 21.6292 31.2708 24.166 31.8262C26.6841 32.3771 28.1287 30.4789 28.1504 30.4502C28.1182 30.4629 26.1053 31.2512 24.4375 30.7061C22.7563 30.1564 22.0635 28.46 22.0635 28.46Z" fill="white"/>
<defs>
<filter id="filter0_d_1_128" x="0" y="0" width="50" height="50" filterUnits="userSpaceOnUse" color-interpolation-filters="sRGB">
<feFlood flood-opacity="0" result="BackgroundImageFix"/>
<feColorMatrix in="SourceAlpha" type="matrix" values="0 0 0 0 0 0 0 0 0 0 0 0 0 0 0 0 0 0 127 0" result="hardAlpha"/>
<feOffset/>
<feGaussianBlur stdDeviation="5"/>
<feColorMatrix type="matrix" values="0 0 0 0 0.333333 0 0 0 0 0.619608 0 0 0 0 0.87451 0 0 0 0.7 0"/>
<feBlend mode="normal" in2="BackgroundImageFix" result="effect1_dropShadow_1_128"/>
<feBlend mode="normal" in="SourceGraphic" in2="effect1_dropShadow_1_128" result="shape"/>
</filter>
<linearGradient id="paint0_linear_1_128" x1="10" y1="10" x2="10" y2="40" gradientUnits="userSpaceOnUse">
<stop stop-color="#4A90DD"/>
<stop offset="1" stop-color="#6CBDE4"/>
</linearGradient>
</defs>
</svg>
